<svg width="505" height="222" viewBox="0 0 505 222" fill="none" xmlns="http://www.w3.org/2000/svg">
<path d="M41.9512 1.46094C43.9043 1.46094 45.8818 1.55859 47.8838 1.75391C49.8857 1.94922 51.6924 2.41309 53.3037 3.14551C54.915 3.87793 56.2334 4.97656 57.2588 6.44141C58.2842 7.85742 58.7969 9.81055 58.7969 12.3008C58.7969 14.791 58.2842 16.7686 57.2588 18.2334C56.2334 19.6494 54.915 20.7236 53.3037 21.4561C51.6924 22.1885 49.8857 22.6523 47.8838 22.8477C45.8818 23.043 43.9043 23.1406 41.9512 23.1406H24.5195V42.1836H33.748C35.6523 42.1836 37.6055 42.2568 39.6074 42.4033C41.6094 42.5498 43.416 42.9648 45.0273 43.6484C46.6387 44.332 47.957 45.4062 48.9824 46.8711C50.0566 48.3359 50.5938 50.3867 50.5938 53.0234C50.5938 55.6602 50.0811 57.7109 49.0557 59.1758C48.0303 60.6406 46.7119 61.7148 45.1006 62.3984C43.4893 63.082 41.6826 63.4971 39.6807 63.6436C37.6787 63.79 35.7012 63.8633 33.748 63.8633H24.5195V87.1543C24.5195 89.3027 24.4463 91.3779 24.2998 93.3799C24.2021 95.3818 23.7871 97.1885 23.0547 98.7998C22.3711 100.362 21.2725 101.632 19.7588 102.608C18.2451 103.536 16.1211 104 13.3867 104C10.6035 104 8.45508 103.536 6.94141 102.608C5.42773 101.632 4.3291 100.362 3.64551 98.7998C2.96191 97.1885 2.54688 95.3818 2.40039 93.3799C2.30273 91.3779 2.25391 89.3027 2.25391 87.1543V18.3066C2.25391 16.207 2.30273 14.1562 2.40039 12.1543C2.54688 10.1523 2.96191 8.37012 3.64551 6.80762C4.3291 5.19629 5.42773 3.90234 6.94141 2.92578C8.45508 1.94922 10.6035 1.46094 13.3867 1.46094H41.9512ZM73.0059 18.3066C73.0059 16.207 73.1035 14.1562 73.2988 12.1543C73.543 10.1523 74.0557 8.37012 74.8369 6.80762C75.667 5.19629 76.8877 3.90234 78.499 2.92578C80.1104 1.94922 82.332 1.46094 85.1641 1.46094C87.9961 1.46094 90.2178 1.94922 91.8291 2.92578C93.4404 3.90234 94.6367 5.19629 95.418 6.80762C96.248 8.37012 96.7607 10.1523 96.9561 12.1543C97.2002 14.1562 97.3223 16.207 97.3223 18.3066V87.1543C97.3223 89.3027 97.2246 91.3779 97.0293 93.3799C96.834 95.3818 96.3213 97.1885 95.4912 98.7998C94.71 100.362 93.4893 101.632 91.8291 102.608C90.2178 103.536 87.9961 104 85.1641 104C82.332 104 80.1104 103.536 78.499 102.608C76.8877 101.632 75.667 100.362 74.8369 98.7998C74.0557 97.1885 73.543 95.3818 73.2988 93.3799C73.1035 91.3779 73.0059 89.3027 73.0059 87.1543V18.3066ZM164.119 1.46094C166.072 1.46094 168.025 1.53418 169.979 1.68066C171.98 1.82715 173.787 2.24219 175.398 2.92578C177.01 3.60937 178.304 4.65918 179.28 6.0752C180.306 7.44238 180.818 9.37109 180.818 11.8613C180.818 14.3027 180.306 16.2314 179.28 17.6475C178.304 19.0146 177.01 20.04 175.398 20.7236C173.787 21.4072 171.98 21.8467 169.979 22.042C168.025 22.1885 166.072 22.2617 164.119 22.2617H156.648V87.3008C156.648 89.4004 156.575 91.4512 156.429 93.4531C156.331 95.4551 155.94 97.2373 155.257 98.7998C154.573 100.362 153.475 101.632 151.961 102.608C150.447 103.536 148.299 104 145.516 104C142.732 104 140.584 103.536 139.07 102.608C137.557 101.632 136.458 100.362 135.774 98.7998C135.091 97.2373 134.676 95.4551 134.529 93.4531C134.432 91.4512 134.383 89.4004 134.383 87.3008V22.2617H126.912C124.959 22.2617 122.981 22.1885 120.979 22.042C119.026 21.8467 117.244 21.4072 115.633 20.7236C114.021 20.04 112.703 19.0146 111.678 17.6475C110.701 16.2314 110.213 14.3027 110.213 11.8613C110.213 9.37109 110.701 7.44238 111.678 6.0752C112.703 4.65918 114.021 3.60937 115.633 2.92578C117.244 2.24219 119.026 1.82715 120.979 1.68066C122.981 1.53418 124.959 1.46094 126.912 1.46094H164.119ZM248.494 73.6777H250.252V12.8867C250.252 11.3242 250.35 9.85938 250.545 8.49219C250.74 7.07617 251.155 5.85547 251.79 4.83008C252.474 3.80469 253.45 2.99902 254.72 2.41309C256.038 1.77832 257.82 1.46094 260.066 1.46094C262.557 1.46094 264.51 1.77832 265.926 2.41309C267.391 2.99902 268.489 3.80469 269.222 4.83008C269.954 5.85547 270.418 7.07617 270.613 8.49219C270.809 9.85938 270.906 11.3242 270.906 12.8867V87.1543C270.906 89.3027 270.833 91.3779 270.687 93.3799C270.589 95.3818 270.198 97.1885 269.515 98.7998C268.88 100.362 267.806 101.632 266.292 102.608C264.827 103.536 262.752 104 260.066 104H250.398C248.104 104 246.175 103.561 244.612 102.682C243.099 101.754 241.829 100.655 240.804 99.3857C239.778 98.0674 238.948 96.7002 238.313 95.2842C237.728 93.8682 237.264 92.6719 236.922 91.6953L214.803 31.7832H213.045V92.5742C213.045 94.1367 212.947 95.626 212.752 97.042C212.557 98.4092 212.117 99.6055 211.434 100.631C210.799 101.656 209.822 102.486 208.504 103.121C207.234 103.707 205.477 104 203.23 104C200.691 104 198.689 103.707 197.225 103.121C195.76 102.486 194.661 101.656 193.929 100.631C193.196 99.6055 192.732 98.4092 192.537 97.042C192.342 95.626 192.244 94.1367 192.244 92.5742V18.3066C192.244 16.207 192.293 14.1562 192.391 12.1543C192.537 10.1035 192.952 8.29687 193.636 6.73438C194.319 5.12305 195.394 3.85352 196.858 2.92578C198.372 1.94922 200.496 1.46094 203.23 1.46094H212.898C215.34 1.46094 217.317 1.94922 218.831 2.92578C220.394 3.85352 221.663 4.87891 222.64 6.00195C223.714 7.32031 224.568 8.83398 225.203 10.543L248.494 73.6777ZM330.965 1.46094C332.918 1.46094 334.896 1.53418 336.897 1.68066C338.899 1.82715 340.706 2.24219 342.317 2.92578C343.929 3.60937 345.247 4.65918 346.272 6.0752C347.298 7.44238 347.811 9.37109 347.811 11.8613C347.811 14.3516 347.298 16.3047 346.272 17.7207C345.247 19.0879 343.929 20.1133 342.317 20.7969C340.706 21.4805 338.899 21.8955 336.897 22.042C334.896 22.1885 332.918 22.2617 330.965 22.2617H313.533V42.1836H322.762C324.715 42.1836 326.668 42.2568 328.621 42.4033C330.623 42.501 332.381 42.8916 333.895 43.5752C335.457 44.21 336.727 45.2109 337.703 46.5781C338.68 47.8965 339.168 49.752 339.168 52.1445C339.168 54.5859 338.68 56.4658 337.703 57.7842C336.727 59.1025 335.457 60.1035 333.895 60.7871C332.381 61.4219 330.623 61.8125 328.621 61.959C326.668 62.0566 324.715 62.1055 322.762 62.1055H313.533V83.1992H330.965C332.918 83.1992 334.896 83.2725 336.897 83.4189C338.899 83.5654 340.706 83.9805 342.317 84.6641C343.929 85.2988 345.247 86.3242 346.272 87.7402C347.298 89.1074 347.811 91.0117 347.811 93.4531C347.811 95.9922 347.273 97.9697 346.199 99.3857C345.174 100.802 343.855 101.852 342.244 102.535C340.633 103.219 338.826 103.634 336.824 103.78C334.822 103.927 332.869 104 330.965 104H302.254C299.52 104 297.396 103.512 295.882 102.535C294.417 101.559 293.343 100.289 292.659 98.7266C291.976 97.1152 291.561 95.3086 291.414 93.3066C291.316 91.3047 291.268 89.2539 291.268 87.1543V18.3066C291.268 16.207 291.316 14.1562 291.414 12.1543C291.561 10.1523 291.976 8.37012 292.659 6.80762C293.343 5.19629 294.417 3.90234 295.882 2.92578C297.396 1.94922 299.52 1.46094 302.254 1.46094H330.965ZM382.381 27.2422C382.43 29.293 383.016 31.1484 384.139 32.8086C385.311 34.4199 386.824 35.958 388.68 37.4229C390.584 38.8877 392.732 40.3281 395.125 41.7441C397.518 43.1113 399.959 44.5762 402.449 46.1387C404.988 47.6523 407.454 49.3125 409.847 51.1191C412.239 52.9258 414.388 54.9766 416.292 57.2715C418.196 59.5664 419.734 62.1543 420.906 65.0352C422.078 67.916 422.713 71.1875 422.811 74.8496V75.4355C422.811 79.4395 422.322 82.9307 421.346 85.9092C420.369 88.8877 419.075 91.4512 417.464 93.5996C415.853 95.748 413.973 97.5303 411.824 98.9463C409.676 100.313 407.405 101.412 405.013 102.242C402.669 103.072 400.276 103.658 397.835 104C395.442 104.342 393.172 104.537 391.023 104.586H390.291C386.141 104.586 382.503 104.171 379.378 103.341C376.253 102.511 373.567 101.412 371.321 100.045C369.075 98.6289 367.195 97.0176 365.682 95.2109C364.217 93.4043 363.045 91.5488 362.166 89.6445C361.287 87.6914 360.652 85.7627 360.262 83.8584C359.871 81.9541 359.676 80.1719 359.676 78.5117C359.676 76.8027 359.969 75.3135 360.555 74.0439C361.141 72.7744 361.897 71.749 362.825 70.9678C363.802 70.1377 364.9 69.5273 366.121 69.1367C367.391 68.7461 368.709 68.5508 370.076 68.5508C371.346 68.5508 372.64 68.7461 373.958 69.1367C375.325 69.5273 376.546 70.1377 377.62 70.9678C378.743 71.749 379.646 72.7744 380.33 74.0439C381.062 75.2646 381.453 76.7051 381.502 78.3652C381.6 82.0273 382.43 84.542 383.992 85.9092C385.555 87.2275 387.801 87.8867 390.73 87.8867C392.195 87.8379 393.538 87.667 394.759 87.374C396.028 87.0322 397.103 86.4707 397.981 85.6895C398.86 84.8594 399.544 83.7852 400.032 82.4668C400.569 81.0996 400.838 79.3906 400.838 77.3398C400.838 74.8008 400.252 72.5059 399.08 70.4551C397.957 68.4043 396.468 66.5 394.612 64.7422C392.757 62.9844 390.633 61.3242 388.24 59.7617C385.848 58.1504 383.406 56.5635 380.916 55.001C378.426 53.3896 375.984 51.7295 373.592 50.0205C371.248 48.2627 369.124 46.3584 367.22 44.3076C365.315 42.2568 363.777 39.9863 362.605 37.4961C361.482 35.0059 360.896 32.1738 360.848 29V27.8281C360.896 22.6035 361.58 18.2578 362.898 14.791C364.266 11.3242 366.243 8.56543 368.831 6.51465C371.468 4.46387 374.69 3.02344 378.499 2.19336C382.308 1.31445 386.678 0.875 391.609 0.875H393.514C398.006 0.875 401.814 1.36328 404.939 2.33984C408.064 3.31641 410.652 4.56152 412.703 6.0752C414.803 7.58887 416.438 9.29785 417.61 11.2021C418.831 13.1064 419.734 14.9863 420.32 16.8418C420.906 18.6973 421.272 20.4307 421.419 22.042C421.565 23.6533 421.639 24.9473 421.639 25.9238C421.639 27.3887 421.346 28.7314 420.76 29.9521C420.223 31.124 419.466 32.125 418.489 32.9551C417.562 33.7852 416.438 34.4443 415.12 34.9326C413.851 35.3721 412.459 35.5918 410.945 35.5918C409.773 35.5918 408.602 35.3721 407.43 34.9326C406.258 34.4443 405.208 33.834 404.28 33.1016C403.353 32.3691 402.596 31.5391 402.01 30.6113C401.424 29.6348 401.131 28.6582 401.131 27.6816C401.131 23.6777 400.398 20.8945 398.934 19.332C397.518 17.7695 395.418 16.9883 392.635 16.9883C391.316 16.9883 390.022 17.0615 388.753 17.208C387.532 17.3545 386.434 17.7695 385.457 18.4531C384.529 19.0879 383.772 20.0889 383.187 21.4561C382.649 22.8232 382.381 24.752 382.381 27.2422ZM456.648 27.2422C456.697 29.293 457.283 31.1484 458.406 32.8086C459.578 34.4199 461.092 35.958 462.947 37.4229C464.852 38.8877 467 40.3281 469.393 41.7441C471.785 43.1113 474.227 44.5762 476.717 46.1387C479.256 47.6523 481.722 49.3125 484.114 51.1191C486.507 52.9258 488.655 54.9766 490.56 57.2715C492.464 59.5664 494.002 62.1543 495.174 65.0352C496.346 67.916 496.98 71.1875 497.078 74.8496V75.4355C497.078 79.4395 496.59 82.9307 495.613 85.9092C494.637 88.8877 493.343 91.4512 491.731 93.5996C490.12 95.748 488.24 97.5303 486.092 98.9463C483.943 100.313 481.673 101.412 479.28 102.242C476.937 103.072 474.544 103.658 472.103 104C469.71 104.342 467.439 104.537 465.291 104.586H464.559C460.408 104.586 456.771 104.171 453.646 103.341C450.521 102.511 447.835 101.412 445.589 100.045C443.343 98.6289 441.463 97.0176 439.949 95.2109C438.484 93.4043 437.312 91.5488 436.434 89.6445C435.555 87.6914 434.92 85.7627 434.529 83.8584C434.139 81.9541 433.943 80.1719 433.943 78.5117C433.943 76.8027 434.236 75.3135 434.822 74.0439C435.408 72.7744 436.165 71.749 437.093 70.9678C438.069 70.1377 439.168 69.5273 440.389 69.1367C441.658 68.7461 442.977 68.5508 444.344 68.5508C445.613 68.5508 446.907 68.7461 448.226 69.1367C449.593 69.5273 450.813 70.1377 451.888 70.9678C453.011 71.749 453.914 72.7744 454.598 74.0439C455.33 75.2646 455.721 76.7051 455.77 78.3652C455.867 82.0273 456.697 84.542 458.26 85.9092C459.822 87.2275 462.068 87.8867 464.998 87.8867C466.463 87.8379 467.806 87.667 469.026 87.374C470.296 87.0322 471.37 86.4707 472.249 85.6895C473.128 84.8594 473.812 83.7852 474.3 82.4668C474.837 81.0996 475.105 79.3906 475.105 77.3398C475.105 74.8008 474.52 72.5059 473.348 70.4551C472.225 68.4043 470.735 66.5 468.88 64.7422C467.024 62.9844 464.9 61.3242 462.508 59.7617C460.115 58.1504 457.674 56.5635 455.184 55.001C452.693 53.3896 450.252 51.7295 447.859 50.0205C445.516 48.2627 443.392 46.3584 441.487 44.3076C439.583 42.2568 438.045 39.9863 436.873 37.4961C435.75 35.0059 435.164 32.1738 435.115 29V27.8281C435.164 22.6035 435.848 18.2578 437.166 14.791C438.533 11.3242 440.511 8.56543 443.099 6.51465C445.735 4.46387 448.958 3.02344 452.767 2.19336C456.575 1.31445 460.945 0.875 465.877 0.875H467.781C472.273 0.875 476.082 1.36328 479.207 2.33984C482.332 3.31641 484.92 4.56152 486.971 6.0752C489.07 7.58887 490.706 9.29785 491.878 11.2021C493.099 13.1064 494.002 14.9863 494.588 16.8418C495.174 18.6973 495.54 20.4307 495.687 22.042C495.833 23.6533 495.906 24.9473 495.906 25.9238C495.906 27.3887 495.613 28.7314 495.027 29.9521C494.49 31.124 493.733 32.125 492.757 32.9551C491.829 33.7852 490.706 34.4443 489.388 34.9326C488.118 35.3721 486.727 35.5918 485.213 35.5918C484.041 35.5918 482.869 35.3721 481.697 34.9326C480.525 34.4443 479.476 33.834 478.548 33.1016C477.62 32.3691 476.863 31.5391 476.277 30.6113C475.691 29.6348 475.398 28.6582 475.398 27.6816C475.398 23.6777 474.666 20.8945 473.201 19.332C471.785 17.7695 469.686 16.9883 466.902 16.9883C465.584 16.9883 464.29 17.0615 463.021 17.208C461.8 17.3545 460.701 17.7695 459.725 18.4531C458.797 19.0879 458.04 20.0889 457.454 21.4561C456.917 22.8232 456.648 24.752 456.648 27.2422ZM33.1621 118.461C37.5078 118.461 41.585 119.022 45.3936 120.146C49.251 121.269 52.5957 122.953 55.4277 125.199C58.3086 127.445 60.5547 130.253 62.166 133.622C63.8262 136.942 64.6562 140.824 64.6562 145.268C64.6562 147.562 64.3389 149.662 63.7041 151.566C63.1182 153.422 62.3369 155.106 61.3604 156.62C60.4326 158.134 59.3828 159.452 58.2109 160.575C57.0879 161.698 55.9893 162.675 54.915 163.505C53.8408 164.286 52.8887 164.921 52.0586 165.409C51.2285 165.849 50.6426 166.117 50.3008 166.215C53.2305 167.045 55.6963 168.119 57.6982 169.438C59.7002 170.707 61.3604 172.123 62.6787 173.686C64.0459 175.199 65.0957 176.786 65.8281 178.446C66.6094 180.058 67.1709 181.645 67.5127 183.207C67.9033 184.721 68.123 186.137 68.1719 187.455C68.2695 188.725 68.3184 189.75 68.3184 190.531C68.3184 194.34 67.8545 197.709 66.9268 200.639C65.999 203.52 64.7783 206.034 63.2646 208.183C61.751 210.282 60.0176 212.089 58.0645 213.603C56.1113 215.067 54.1338 216.264 52.1318 217.191C47.3467 219.438 41.9512 220.707 35.9453 221H11.9219C9.13867 221 6.99023 220.536 5.47656 219.608C3.96289 218.632 2.86426 217.362 2.18066 215.8C1.49707 214.188 1.08203 212.382 0.935547 210.38C0.837891 208.378 0.789062 206.303 0.789062 204.154V135.16C0.789062 133.061 0.837891 131.01 0.935547 129.008C1.08203 127.006 1.49707 125.224 2.18066 123.661C2.86426 122.099 3.96289 120.854 5.47656 119.926C6.99023 118.949 9.13867 118.461 11.9219 118.461H33.1621ZM23.0547 176.176V203.715H33.748C36.043 203.617 38.0938 203.08 39.9004 202.104C40.6816 201.713 41.4385 201.2 42.1709 200.565C42.9033 199.931 43.5625 199.149 44.1484 198.222C44.7344 197.245 45.1982 196.146 45.54 194.926C45.8818 193.656 46.0527 192.191 46.0527 190.531C46.0527 188.725 45.8574 187.162 45.4668 185.844C45.125 184.477 44.6367 183.305 44.002 182.328C43.416 181.303 42.7324 180.448 41.9512 179.765C41.1699 179.032 40.3887 178.446 39.6074 178.007C37.7031 176.981 35.5547 176.371 33.1621 176.176H23.0547ZM23.0547 135.746V160.648H32.4297C34.5293 160.551 36.4092 160.062 38.0693 159.184C38.7529 158.842 39.4365 158.378 40.1201 157.792C40.8037 157.206 41.4141 156.522 41.9512 155.741C42.4883 154.911 42.9033 153.935 43.1963 152.812C43.5381 151.688 43.709 150.395 43.709 148.93C43.709 147.27 43.5381 145.829 43.1963 144.608C42.8545 143.339 42.3906 142.265 41.8047 141.386C41.2676 140.458 40.6328 139.677 39.9004 139.042C39.2168 138.407 38.5088 137.87 37.7764 137.431C36.0186 136.503 34.041 135.941 31.8438 135.746H23.0547ZM110.26 135.16C110.26 133.061 110.357 131.01 110.553 129.008C110.797 127.006 111.31 125.224 112.091 123.661C112.921 122.099 114.142 120.854 115.753 119.926C117.364 118.949 119.586 118.461 122.418 118.461C125.25 118.461 127.472 118.949 129.083 119.926C130.743 120.854 131.964 122.099 132.745 123.661C133.575 125.224 134.088 127.006 134.283 129.008C134.479 131.01 134.576 133.061 134.576 135.16V192.875C134.723 195.023 135.162 196.928 135.895 198.588C136.188 199.32 136.578 200.028 137.066 200.712C137.555 201.396 138.116 202.006 138.751 202.543C139.435 203.08 140.216 203.52 141.095 203.861C142.022 204.154 143.072 204.301 144.244 204.301C145.416 204.301 146.466 204.154 147.394 203.861C148.321 203.52 149.103 203.08 149.737 202.543C150.421 202.006 151.007 201.396 151.495 200.712C151.983 200.028 152.374 199.32 152.667 198.588C153.399 196.928 153.814 195.023 153.912 192.875V135.16C153.912 133.061 154.01 131.01 154.205 129.008C154.4 127.006 154.889 125.224 155.67 123.661C156.5 122.099 157.721 120.854 159.332 119.926C160.943 118.949 163.189 118.461 166.07 118.461C168.902 118.461 171.124 118.949 172.735 119.926C174.347 120.854 175.543 122.099 176.324 123.661C177.154 125.224 177.667 127.006 177.862 129.008C178.106 131.01 178.229 133.061 178.229 135.16V190.971C178.229 196.049 177.398 200.492 175.738 204.301C174.127 208.109 171.808 211.308 168.78 213.896C165.802 216.435 162.213 218.363 158.014 219.682C153.863 220.951 149.273 221.586 144.244 221.586C139.166 221.586 134.552 220.927 130.401 219.608C126.251 218.241 122.662 216.264 119.635 213.676C116.656 211.088 114.337 207.89 112.677 204.081C111.065 200.272 110.26 195.902 110.26 190.971V135.16ZM257.523 118.461C261.967 118.461 266.093 119.022 269.901 120.146C273.759 121.269 277.104 122.953 279.936 125.199C282.816 127.396 285.062 130.155 286.674 133.476C288.334 136.796 289.164 140.678 289.164 145.121V190.531C289.164 194.34 288.749 197.709 287.919 200.639C287.089 203.52 285.99 206.034 284.623 208.183C283.305 210.282 281.791 212.089 280.082 213.603C278.373 215.067 276.64 216.264 274.882 217.191C270.683 219.438 265.922 220.707 260.6 221H236.283C233.5 221 231.352 220.536 229.838 219.608C228.324 218.632 227.226 217.362 226.542 215.8C225.858 214.188 225.443 212.382 225.297 210.38C225.199 208.378 225.15 206.303 225.15 204.154V135.16C225.15 133.061 225.199 131.01 225.297 129.008C225.443 127.006 225.858 125.224 226.542 123.661C227.226 122.099 228.324 120.854 229.838 119.926C231.352 118.949 233.5 118.461 236.283 118.461H257.523ZM247.416 135.6V203.568H256.938C259.037 203.471 260.917 202.982 262.577 202.104C263.261 201.762 263.944 201.298 264.628 200.712C265.312 200.126 265.922 199.442 266.459 198.661C266.996 197.831 267.411 196.854 267.704 195.731C268.046 194.608 268.217 193.314 268.217 191.85V148.637C268.217 147.025 268.046 145.609 267.704 144.389C267.411 143.119 266.996 142.021 266.459 141.093C265.922 140.165 265.312 139.384 264.628 138.749C263.944 138.114 263.261 137.602 262.577 137.211C260.917 136.283 259.037 135.746 256.938 135.6H247.416ZM364.65 118.461C369.094 118.461 373.22 119.022 377.028 120.146C380.886 121.269 384.23 122.953 387.062 125.199C389.943 127.396 392.189 130.155 393.801 133.476C395.461 136.796 396.291 140.678 396.291 145.121V190.531C396.291 194.34 395.876 197.709 395.046 200.639C394.216 203.52 393.117 206.034 391.75 208.183C390.432 210.282 388.918 212.089 387.209 213.603C385.5 215.067 383.767 216.264 382.009 217.191C377.81 219.438 373.049 220.707 367.727 221H343.41C340.627 221 338.479 220.536 336.965 219.608C335.451 218.632 334.353 217.362 333.669 215.8C332.985 214.188 332.57 212.382 332.424 210.38C332.326 208.378 332.277 206.303 332.277 204.154V135.16C332.277 133.061 332.326 131.01 332.424 129.008C332.57 127.006 332.985 125.224 333.669 123.661C334.353 122.099 335.451 120.854 336.965 119.926C338.479 118.949 340.627 118.461 343.41 118.461H364.65ZM354.543 135.6V203.568H364.064C366.164 203.471 368.044 202.982 369.704 202.104C370.388 201.762 371.071 201.298 371.755 200.712C372.438 200.126 373.049 199.442 373.586 198.661C374.123 197.831 374.538 196.854 374.831 195.731C375.173 194.608 375.344 193.314 375.344 191.85V148.637C375.344 147.025 375.173 145.609 374.831 144.389C374.538 143.119 374.123 142.021 373.586 141.093C373.049 140.165 372.438 139.384 371.755 138.749C371.071 138.114 370.388 137.602 369.704 137.211C368.044 136.283 366.164 135.746 364.064 135.6H354.543ZM477.49 204.447C477.49 206.498 477.393 208.524 477.197 210.526C477.002 212.479 476.538 214.237 475.806 215.8C475.073 217.362 473.975 218.632 472.51 219.608C471.045 220.536 469.043 221 466.504 221C463.916 221 461.89 220.536 460.425 219.608C458.96 218.632 457.837 217.362 457.056 215.8C456.323 214.237 455.859 212.479 455.664 210.526C455.469 208.524 455.371 206.498 455.371 204.447V178.959L433.545 139.994C432.373 137.943 431.25 135.941 430.176 133.988C429.102 131.986 428.564 129.984 428.564 127.982C428.564 126.664 428.931 125.346 429.663 124.027C430.444 122.66 431.836 121.391 433.838 120.219C436.035 119.047 438.086 118.461 439.99 118.461C441.455 118.461 442.773 118.803 443.945 119.486C445.166 120.121 446.265 120.976 447.241 122.05C448.218 123.124 449.097 124.345 449.878 125.712C450.659 127.03 451.367 128.373 452.002 129.74L465.332 157.719H467.676L481.006 129.74C481.641 128.373 482.349 127.03 483.13 125.712C483.911 124.345 484.79 123.124 485.767 122.05C486.743 120.976 487.817 120.121 488.989 119.486C490.21 118.803 491.553 118.461 493.018 118.461C494.043 118.461 495.044 118.607 496.021 118.9C496.997 119.193 498.047 119.633 499.17 120.219C501.074 121.391 502.417 122.66 503.198 124.027C504.028 125.346 504.443 126.664 504.443 127.982C504.443 128.861 504.053 130.302 503.271 132.304C502.49 134.257 501.221 136.82 499.463 139.994L477.49 178.959V204.447Z" fill="#84DCC6"/>
</svg>
